<svg width="36" height="36" viewBox="0 0 36 36" fill="none" xmlns="http://www.w3.org/2000/svg">
<g clip-path="url(#clip0_1_14)">
<path d="M18 36C27.9411 36 36 31.5228 36 26C36 20.4772 27.9411 16 18 16C8.05887 16 0 20.4772 0 26C0 31.5228 8.05887 36 18 36Z" fill="#292F33"/>
<path d="M18 34C27.9411 34 36 29.5228 36 24C36 18.4772 27.9411 14 18 14C8.05887 14 0 18.4772 0 24C0 29.5228 8.05887 34 18 34Z" fill="#66757F"/>
<path d="M18 31C3.042 31 1 16 1 12H35C35 14 33.042 31 18 31Z" fill="#E1E8ED"/>
<path d="M35 12.056C35 17.272 27.389 21.5 18 21.5C8.611 21.5 1 17.271 1 12.056C1 6.84 8.611 3.611 18 3.611C27.389 3.611 35 6.84 35 12.056V12.056Z" fill="#77B255"/>
<path d="M18 20C26.2843 20 33 16.866 33 13C33 9.13401 26.2843 6 18 6C9.71573 6 3 9.13401 3 13C3 16.866 9.71573 20 18 20Z" fill="#A6D388"/>
<path d="M21 17C20.744 17 20.488 16.902 20.293 16.707C17.956 14.37 17.917 11.822 20.168 8.445C20.907 7.336 21.068 6.199 20.646 5.068C20.185 3.832 19.208 3.072 18.915 2.991C18.362 2.991 17.957 2.548 17.957 1.995C17.957 1.443 18.448 1 19 1C19.997 1 21.395 2.153 22.183 3.625C23.217 5.558 23.093 7.664 21.832 9.554C19.871 12.496 20.301 13.886 21.707 15.292C22.098 15.683 22.098 16.315 21.707 16.706C21.512 16.902 21.256 17 21 17V17ZM15 15C14.744 15 14.488 14.902 14.293 14.707C11.956 12.37 11.917 9.822 14.168 6.445C14.895 5.354 15.061 4.362 14.662 3.498C14.218 2.537 13.231 2.029 12.978 1.999C12.426 1.999 11.989 1.552 11.989 0.999001C11.989 0.447001 12.447 -0.000999451 13 -0.000999451C13.997 -0.000999451 15.585 0.973 16.36 2.422C16.841 3.321 17.412 5.183 15.832 7.553C13.871 10.495 14.301 11.885 15.707 13.291C16.098 13.682 16.098 14.314 15.707 14.705C15.512 14.902 15.256 15 15 15V15Z" fill="#5C913B"/>
</g>
<defs>
<clipPath id="clip0_1_14">
<rect width="36" height="36" fill="white"/>
</clipPath>
</defs>
</svg>
